<svg id="_025-instagram" data-name="025-instagram" xmlns="http://www.w3.org/2000/svg" width="45" height="45" viewBox="0 0 45 45">
  <path id="Path_30" data-name="Path 30" d="M6.592,45H38.408A6.6,6.6,0,0,0,45,38.408V6.592A6.6,6.6,0,0,0,38.408,0H6.592A6.6,6.6,0,0,0,0,6.592V38.408A6.6,6.6,0,0,0,6.592,45ZM2.637,6.592A3.96,3.96,0,0,1,6.592,2.637H38.408a3.96,3.96,0,0,1,3.955,3.955V38.408a3.96,3.96,0,0,1-3.955,3.955H6.592a3.96,3.96,0,0,1-3.955-3.955Zm0,0" fill="#d1e3ec"/>
  <path id="Path_31" data-name="Path 31" d="M132.815,144.629A11.815,11.815,0,1,0,121,132.815,11.828,11.828,0,0,0,132.815,144.629Zm0-21a9.189,9.189,0,1,1-9.189,9.189A9.2,9.2,0,0,1,132.815,123.625Zm0,0" transform="translate(-110.315 -110.315)" fill="#d1e3ec"/>
  <path id="Path_32" data-name="Path 32" d="M364.974,68.948A3.974,3.974,0,1,0,361,64.974,3.978,3.978,0,0,0,364.974,68.948Zm0-5.3a1.325,1.325,0,1,1-1.325,1.325A1.326,1.326,0,0,1,364.974,63.649Zm0,0" transform="translate(-329.335 -55.613)" fill="#d1e3ec"/>
</svg>
