<svg xmlns="http://www.w3.org/2000/svg" width="45" height="45" viewBox="0 0 45 45">
  <path id="_043-twitter" data-name="043-twitter" d="M45,6.01c-2.831.159-2.769.146-3.089.179L43.587.34s-5.233,2.352-6.56,2.773A9.034,9.034,0,0,0,24.663,1.9C21.631,4.175,20,8.086,20.546,12.657c-5.9-1-10.872-4.418-14.8-10.179L4.507.656,3.58,2.737a15.039,15.039,0,0,0-1.1,8.468,14.019,14.019,0,0,0,.965,3.305l-1.065-.5L2.256,16.18a13.56,13.56,0,0,0,1.61,6.9,12.146,12.146,0,0,0,1.254,1.89l-.55-.1.672,2.491a11.708,11.708,0,0,0,5.1,7.213,78.265,78.265,0,0,1-7.451,3.286L0,39.013l2.666,1.781a25.08,25.08,0,0,0,8.158,3.628c7.89,1.512,16.772.281,22.752-6.3,5.037-5.543,6.69-13.427,6.346-21.631a5.97,5.97,0,0,1,.784-3.337C41.824,11.331,44.993,6.022,45,6.01Zm-6.4,5.214a9.708,9.708,0,0,0-1.307,5.431c.346,8.276-1.5,14.694-5.478,19.075-4.651,5.118-12.153,7.127-20.582,5.511a17.743,17.743,0,0,1-4.41-1.6,63.421,63.421,0,0,0,7.987-4.011l4.605-2.663-5.085-.4a7.053,7.053,0,0,1-5.71-3.974,7.624,7.624,0,0,0,1.936-.394l4.849-1.65-4.89-1.463a7.549,7.549,0,0,1-4.448-3.78,10.2,10.2,0,0,1-.964-2.6,10.193,10.193,0,0,0,1.984.387l4.526.547L8.027,16.223a10.388,10.388,0,0,1-2.86-9.718C13.23,16.724,22.7,15.956,23.652,16.226a23.085,23.085,0,0,0-.27-2.732c-1.221-5.272,1.454-7.948,2.661-8.854a6.776,6.776,0,0,1,9.291.94,2.073,2.073,0,0,0,2.165.708,15.866,15.866,0,0,0,1.784-.663L38.145,9.592H39.6c-.274.449-.6.986-1,1.63Zm0,0" transform="translate(0 0)" fill="#d1e3ec"/>
</svg>
