<svg xmlns="http://www.w3.org/2000/svg" width="45" height="45" viewBox="0 0 45 45">
  <path id="_021-facebook" data-name="021-facebook" d="M6.592,45H21.27V29H16V23.73H21.27V17.139a6.6,6.6,0,0,1,6.592-6.592h6.592V15.82H29.18a2.64,2.64,0,0,0-2.637,2.637V23.73h7.672L33.336,29H26.543V45H38.408A6.6,6.6,0,0,0,45,38.408V6.592A6.6,6.6,0,0,0,38.408,0H6.592A6.6,6.6,0,0,0,0,6.592V38.408A6.6,6.6,0,0,0,6.592,45ZM2.637,6.592A3.96,3.96,0,0,1,6.592,2.637H38.408a3.96,3.96,0,0,1,3.955,3.955V38.408a3.96,3.96,0,0,1-3.955,3.955H29.18V31.641h6.39l1.758-10.547H29.18V18.457h7.91V7.91H27.861a9.239,9.239,0,0,0-9.229,9.229v3.955H13.359V31.641h5.273V42.363H6.592a3.96,3.96,0,0,1-3.955-3.955Zm0,0" fill="#d1e3ec"/>
</svg>
