<svg xmlns="http://www.w3.org/2000/svg" xmlns:xlink="http://www.w3.org/1999/xlink" width="859.814" height="800.458" viewBox="0 0 859.814 800.458">
  <defs>
    <linearGradient id="linear-gradient" x1="0.028" y1="-0.002" x2="0.942" y2="0.943" gradientUnits="objectBoundingBox">
      <stop offset="0" stop-color="#0784b5"/>
      <stop offset="0.031" stop-color="#0885b6"/>
      <stop offset="1" stop-color="#39ace7"/>
    </linearGradient>
    <clipPath id="clip-path">
      <rect width="152" height="155" fill="none"/>
    </clipPath>
    <clipPath id="clip-path-2">
      <rect width="152" height="152.112" fill="none"/>
    </clipPath>
  </defs>
  <g id="background_forms" data-name="background forms" transform="translate(-855 -211)">
    <circle id="Ellipse" cx="61" cy="61" r="61" transform="translate(855 211)" fill="#279ed5"/>
    <rect id="Rectangle_3" data-name="Rectangle 3" width="695" height="569" transform="matrix(0.927, 0, -0.091, 0.97, 994.354, 284.745)" fill="url(#linear-gradient)"/>
    <g id="top_dots" data-name="top dots" transform="translate(945 482)" clip-path="url(#clip-path)">
      <g transform="translate(-927 -469)">
        <circle id="Ellipse_1" data-name="Ellipse 1" cx="5" cy="5" r="5" transform="translate(927 469)" fill="rgba(244,246,255,0.53)"/>
      </g>
      <g transform="translate(-907 -469)">
        <circle id="Ellipse_1-2" data-name="Ellipse 1" cx="5" cy="5" r="5" transform="translate(927 469)" fill="rgba(244,246,255,0.53)"/>
      </g>
      <g transform="translate(-887 -469)">
        <circle id="Ellipse_1-3" data-name="Ellipse 1" cx="5" cy="5" r="5" transform="translate(927 469)" fill="rgba(244,246,255,0.53)"/>
      </g>
      <g transform="translate(-867 -469)">
        <circle id="Ellipse_1-4" data-name="Ellipse 1" cx="5" cy="5" r="5" transform="translate(927 469)" fill="rgba(244,246,255,0.53)"/>
      </g>
      <g transform="translate(-847 -469)">
        <circle id="Ellipse_1-5" data-name="Ellipse 1" cx="5" cy="5" r="5" transform="translate(927 469)" fill="rgba(244,246,255,0.53)"/>
      </g>
      <g transform="translate(-827 -469)">
        <circle id="Ellipse_1-6" data-name="Ellipse 1" cx="5" cy="5" r="5" transform="translate(927 469)" fill="rgba(244,246,255,0.53)"/>
      </g>
      <g transform="translate(-807 -469)">
        <circle id="Ellipse_1-7" data-name="Ellipse 1" cx="5" cy="5" r="5" transform="translate(927 469)" fill="rgba(244,246,255,0.53)"/>
      </g>
      <g transform="translate(-787 -469)">
        <circle id="Ellipse_1-8" data-name="Ellipse 1" cx="5" cy="5" r="5" transform="translate(927 469)" fill="rgba(244,246,255,0.53)"/>
      </g>
      <g transform="translate(-927 -449)">
        <circle id="Ellipse_1-9" data-name="Ellipse 1" cx="5" cy="5" r="5" transform="translate(927 469)" fill="rgba(244,246,255,0.53)"/>
      </g>
      <g transform="translate(-907 -449)">
        <circle id="Ellipse_1-10" data-name="Ellipse 1" cx="5" cy="5" r="5" transform="translate(927 469)" fill="rgba(244,246,255,0.53)"/>
      </g>
      <g transform="translate(-887 -449)">
        <circle id="Ellipse_1-11" data-name="Ellipse 1" cx="5" cy="5" r="5" transform="translate(927 469)" fill="rgba(244,246,255,0.53)"/>
      </g>
      <g transform="translate(-867 -449)">
        <circle id="Ellipse_1-12" data-name="Ellipse 1" cx="5" cy="5" r="5" transform="translate(927 469)" fill="rgba(244,246,255,0.53)"/>
      </g>
      <g transform="translate(-847 -449)">
        <circle id="Ellipse_1-13" data-name="Ellipse 1" cx="5" cy="5" r="5" transform="translate(927 469)" fill="rgba(244,246,255,0.53)"/>
      </g>
      <g transform="translate(-827 -449)">
        <circle id="Ellipse_1-14" data-name="Ellipse 1" cx="5" cy="5" r="5" transform="translate(927 469)" fill="rgba(244,246,255,0.53)"/>
      </g>
      <g transform="translate(-807 -449)">
        <circle id="Ellipse_1-15" data-name="Ellipse 1" cx="5" cy="5" r="5" transform="translate(927 469)" fill="rgba(244,246,255,0.53)"/>
      </g>
      <g transform="translate(-787 -449)">
        <circle id="Ellipse_1-16" data-name="Ellipse 1" cx="5" cy="5" r="5" transform="translate(927 469)" fill="rgba(244,246,255,0.53)"/>
      </g>
      <g transform="translate(-927 -429)">
        <circle id="Ellipse_1-17" data-name="Ellipse 1" cx="5" cy="5" r="5" transform="translate(927 469)" fill="rgba(244,246,255,0.53)"/>
      </g>
      <g transform="translate(-907 -429)">
        <circle id="Ellipse_1-18" data-name="Ellipse 1" cx="5" cy="5" r="5" transform="translate(927 469)" fill="rgba(244,246,255,0.53)"/>
      </g>
      <g transform="translate(-887 -429)">
        <circle id="Ellipse_1-19" data-name="Ellipse 1" cx="5" cy="5" r="5" transform="translate(927 469)" fill="rgba(244,246,255,0.53)"/>
      </g>
      <g transform="translate(-867 -429)">
        <circle id="Ellipse_1-20" data-name="Ellipse 1" cx="5" cy="5" r="5" transform="translate(927 469)" fill="rgba(244,246,255,0.53)"/>
      </g>
      <g transform="translate(-847 -429)">
        <circle id="Ellipse_1-21" data-name="Ellipse 1" cx="5" cy="5" r="5" transform="translate(927 469)" fill="rgba(244,246,255,0.53)"/>
      </g>
      <g transform="translate(-827 -429)">
        <circle id="Ellipse_1-22" data-name="Ellipse 1" cx="5" cy="5" r="5" transform="translate(927 469)" fill="rgba(244,246,255,0.53)"/>
      </g>
      <g transform="translate(-807 -429)">
        <circle id="Ellipse_1-23" data-name="Ellipse 1" cx="5" cy="5" r="5" transform="translate(927 469)" fill="rgba(244,246,255,0.53)"/>
      </g>
      <g transform="translate(-787 -429)">
        <circle id="Ellipse_1-24" data-name="Ellipse 1" cx="5" cy="5" r="5" transform="translate(927 469)" fill="rgba(244,246,255,0.53)"/>
      </g>
      <g transform="translate(-927 -409)">
        <circle id="Ellipse_1-25" data-name="Ellipse 1" cx="5" cy="5" r="5" transform="translate(927 469)" fill="rgba(244,246,255,0.53)"/>
      </g>
      <g transform="translate(-907 -409)">
        <circle id="Ellipse_1-26" data-name="Ellipse 1" cx="5" cy="5" r="5" transform="translate(927 469)" fill="rgba(244,246,255,0.53)"/>
      </g>
      <g transform="translate(-887 -409)">
        <circle id="Ellipse_1-27" data-name="Ellipse 1" cx="5" cy="5" r="5" transform="translate(927 469)" fill="rgba(244,246,255,0.53)"/>
      </g>
      <g transform="translate(-867 -409)">
        <circle id="Ellipse_1-28" data-name="Ellipse 1" cx="5" cy="5" r="5" transform="translate(927 469)" fill="rgba(244,246,255,0.53)"/>
      </g>
      <g transform="translate(-847 -409)">
        <circle id="Ellipse_1-29" data-name="Ellipse 1" cx="5" cy="5" r="5" transform="translate(927 469)" fill="rgba(244,246,255,0.53)"/>
      </g>
      <g transform="translate(-827 -409)">
        <circle id="Ellipse_1-30" data-name="Ellipse 1" cx="5" cy="5" r="5" transform="translate(927 469)" fill="rgba(244,246,255,0.53)"/>
      </g>
      <g transform="translate(-807 -409)">
        <circle id="Ellipse_1-31" data-name="Ellipse 1" cx="5" cy="5" r="5" transform="translate(927 469)" fill="rgba(244,246,255,0.53)"/>
      </g>
      <g transform="translate(-787 -409)">
        <circle id="Ellipse_1-32" data-name="Ellipse 1" cx="5" cy="5" r="5" transform="translate(927 469)" fill="rgba(244,246,255,0.53)"/>
      </g>
      <g transform="translate(-927 -389)">
        <circle id="Ellipse_1-33" data-name="Ellipse 1" cx="5" cy="5" r="5" transform="translate(927 469)" fill="rgba(244,246,255,0.53)"/>
      </g>
      <g transform="translate(-907 -389)">
        <circle id="Ellipse_1-34" data-name="Ellipse 1" cx="5" cy="5" r="5" transform="translate(927 469)" fill="rgba(244,246,255,0.53)"/>
      </g>
      <g transform="translate(-887 -389)">
        <circle id="Ellipse_1-35" data-name="Ellipse 1" cx="5" cy="5" r="5" transform="translate(927 469)" fill="rgba(244,246,255,0.53)"/>
      </g>
      <g transform="translate(-867 -389)">
        <circle id="Ellipse_1-36" data-name="Ellipse 1" cx="5" cy="5" r="5" transform="translate(927 469)" fill="rgba(244,246,255,0.53)"/>
      </g>
      <g transform="translate(-847 -389)">
        <circle id="Ellipse_1-37" data-name="Ellipse 1" cx="5" cy="5" r="5" transform="translate(927 469)" fill="rgba(244,246,255,0.53)"/>
      </g>
      <g transform="translate(-827 -389)">
        <circle id="Ellipse_1-38" data-name="Ellipse 1" cx="5" cy="5" r="5" transform="translate(927 469)" fill="rgba(244,246,255,0.53)"/>
      </g>
      <g transform="translate(-807 -389)">
        <circle id="Ellipse_1-39" data-name="Ellipse 1" cx="5" cy="5" r="5" transform="translate(927 469)" fill="rgba(244,246,255,0.53)"/>
      </g>
      <g transform="translate(-787 -389)">
        <circle id="Ellipse_1-40" data-name="Ellipse 1" cx="5" cy="5" r="5" transform="translate(927 469)" fill="rgba(244,246,255,0.53)"/>
      </g>
      <g transform="translate(-927 -369)">
        <circle id="Ellipse_1-41" data-name="Ellipse 1" cx="5" cy="5" r="5" transform="translate(927 469)" fill="rgba(244,246,255,0.53)"/>
      </g>
      <g transform="translate(-907 -369)">
        <circle id="Ellipse_1-42" data-name="Ellipse 1" cx="5" cy="5" r="5" transform="translate(927 469)" fill="rgba(244,246,255,0.53)"/>
      </g>
      <g transform="translate(-887 -369)">
        <circle id="Ellipse_1-43" data-name="Ellipse 1" cx="5" cy="5" r="5" transform="translate(927 469)" fill="rgba(244,246,255,0.53)"/>
      </g>
      <g transform="translate(-867 -369)">
        <circle id="Ellipse_1-44" data-name="Ellipse 1" cx="5" cy="5" r="5" transform="translate(927 469)" fill="rgba(244,246,255,0.53)"/>
      </g>
      <g transform="translate(-847 -369)">
        <circle id="Ellipse_1-45" data-name="Ellipse 1" cx="5" cy="5" r="5" transform="translate(927 469)" fill="rgba(244,246,255,0.53)"/>
      </g>
      <g transform="translate(-827 -369)">
        <circle id="Ellipse_1-46" data-name="Ellipse 1" cx="5" cy="5" r="5" transform="translate(927 469)" fill="rgba(244,246,255,0.53)"/>
      </g>
      <g transform="translate(-807 -369)">
        <circle id="Ellipse_1-47" data-name="Ellipse 1" cx="5" cy="5" r="5" transform="translate(927 469)" fill="rgba(244,246,255,0.53)"/>
      </g>
      <g transform="translate(-787 -369)">
        <circle id="Ellipse_1-48" data-name="Ellipse 1" cx="5" cy="5" r="5" transform="translate(927 469)" fill="rgba(244,246,255,0.53)"/>
      </g>
      <g transform="translate(-927 -349)">
        <circle id="Ellipse_1-49" data-name="Ellipse 1" cx="5" cy="5" r="5" transform="translate(927 469)" fill="rgba(244,246,255,0.53)"/>
      </g>
      <g transform="translate(-907 -349)">
        <circle id="Ellipse_1-50" data-name="Ellipse 1" cx="5" cy="5" r="5" transform="translate(927 469)" fill="rgba(244,246,255,0.53)"/>
      </g>
      <g transform="translate(-887 -349)">
        <circle id="Ellipse_1-51" data-name="Ellipse 1" cx="5" cy="5" r="5" transform="translate(927 469)" fill="rgba(244,246,255,0.53)"/>
      </g>
      <g transform="translate(-867 -349)">
        <circle id="Ellipse_1-52" data-name="Ellipse 1" cx="5" cy="5" r="5" transform="translate(927 469)" fill="rgba(244,246,255,0.53)"/>
      </g>
      <g transform="translate(-847 -349)">
        <circle id="Ellipse_1-53" data-name="Ellipse 1" cx="5" cy="5" r="5" transform="translate(927 469)" fill="rgba(244,246,255,0.53)"/>
      </g>
      <g transform="translate(-827 -349)">
        <circle id="Ellipse_1-54" data-name="Ellipse 1" cx="5" cy="5" r="5" transform="translate(927 469)" fill="rgba(244,246,255,0.53)"/>
      </g>
      <g transform="translate(-807 -349)">
        <circle id="Ellipse_1-55" data-name="Ellipse 1" cx="5" cy="5" r="5" transform="translate(927 469)" fill="rgba(244,246,255,0.53)"/>
      </g>
      <g transform="translate(-787 -349)">
        <circle id="Ellipse_1-56" data-name="Ellipse 1" cx="5" cy="5" r="5" transform="translate(927 469)" fill="rgba(244,246,255,0.53)"/>
      </g>
      <g transform="translate(-927 -329)">
        <circle id="Ellipse_1-57" data-name="Ellipse 1" cx="5" cy="5" r="5" transform="translate(927 469)" fill="rgba(244,246,255,0.53)"/>
      </g>
      <g transform="translate(-907 -329)">
        <circle id="Ellipse_1-58" data-name="Ellipse 1" cx="5" cy="5" r="5" transform="translate(927 469)" fill="rgba(244,246,255,0.53)"/>
      </g>
      <g transform="translate(-887 -329)">
        <circle id="Ellipse_1-59" data-name="Ellipse 1" cx="5" cy="5" r="5" transform="translate(927 469)" fill="rgba(244,246,255,0.53)"/>
      </g>
      <g transform="translate(-867 -329)">
        <circle id="Ellipse_1-60" data-name="Ellipse 1" cx="5" cy="5" r="5" transform="translate(927 469)" fill="rgba(244,246,255,0.53)"/>
      </g>
      <g transform="translate(-847 -329)">
        <circle id="Ellipse_1-61" data-name="Ellipse 1" cx="5" cy="5" r="5" transform="translate(927 469)" fill="rgba(244,246,255,0.53)"/>
      </g>
      <g transform="translate(-827 -329)">
        <circle id="Ellipse_1-62" data-name="Ellipse 1" cx="5" cy="5" r="5" transform="translate(927 469)" fill="rgba(244,246,255,0.53)"/>
      </g>
      <g transform="translate(-807 -329)">
        <circle id="Ellipse_1-63" data-name="Ellipse 1" cx="5" cy="5" r="5" transform="translate(927 469)" fill="rgba(244,246,255,0.53)"/>
      </g>
      <g transform="translate(-787 -329)">
        <circle id="Ellipse_1-64" data-name="Ellipse 1" cx="5" cy="5" r="5" transform="translate(927 469)" fill="rgba(244,246,255,0.53)"/>
      </g>
    </g>
    <g id="bottom_dots" data-name="bottom dots" transform="matrix(0.799, 0.602, -0.602, 0.799, 1593.422, 798.5)" clip-path="url(#clip-path-2)">
      <g transform="translate(-927 -469)">
        <circle id="Ellipse_1-65" data-name="Ellipse 1" cx="5" cy="5" r="5" transform="translate(927 469)" fill="rgba(244,246,255,0.53)"/>
      </g>
      <g transform="translate(-907 -469)">
        <circle id="Ellipse_1-66" data-name="Ellipse 1" cx="5" cy="5" r="5" transform="translate(927 469)" fill="rgba(244,246,255,0.53)"/>
      </g>
      <g transform="translate(-887 -469)">
        <circle id="Ellipse_1-67" data-name="Ellipse 1" cx="5" cy="5" r="5" transform="translate(927 469)" fill="rgba(244,246,255,0.53)"/>
      </g>
      <g transform="translate(-867 -469)">
        <circle id="Ellipse_1-68" data-name="Ellipse 1" cx="5" cy="5" r="5" transform="translate(927 469)" fill="rgba(244,246,255,0.53)"/>
      </g>
      <g transform="translate(-847 -469)">
        <circle id="Ellipse_1-69" data-name="Ellipse 1" cx="5" cy="5" r="5" transform="translate(927 469)" fill="rgba(244,246,255,0.53)"/>
      </g>
      <g transform="translate(-827 -469)">
        <circle id="Ellipse_1-70" data-name="Ellipse 1" cx="5" cy="5" r="5" transform="translate(927 469)" fill="rgba(244,246,255,0.53)"/>
      </g>
      <g transform="translate(-807 -469)">
        <circle id="Ellipse_1-71" data-name="Ellipse 1" cx="5" cy="5" r="5" transform="translate(927 469)" fill="rgba(244,246,255,0.53)"/>
      </g>
      <g transform="translate(-787 -469)">
        <circle id="Ellipse_1-72" data-name="Ellipse 1" cx="5" cy="5" r="5" transform="translate(927 469)" fill="rgba(244,246,255,0.53)"/>
      </g>
      <g transform="translate(-927 -449)">
        <circle id="Ellipse_1-73" data-name="Ellipse 1" cx="5" cy="5" r="5" transform="translate(927 469)" fill="rgba(244,246,255,0.53)"/>
      </g>
      <g transform="translate(-907 -449)">
        <circle id="Ellipse_1-74" data-name="Ellipse 1" cx="5" cy="5" r="5" transform="translate(927 469)" fill="rgba(244,246,255,0.53)"/>
      </g>
      <g transform="translate(-887 -449)">
        <circle id="Ellipse_1-75" data-name="Ellipse 1" cx="5" cy="5" r="5" transform="translate(927 469)" fill="rgba(244,246,255,0.53)"/>
      </g>
      <g transform="translate(-867 -449)">
        <circle id="Ellipse_1-76" data-name="Ellipse 1" cx="5" cy="5" r="5" transform="translate(927 469)" fill="rgba(244,246,255,0.53)"/>
      </g>
      <g transform="translate(-847 -449)">
        <circle id="Ellipse_1-77" data-name="Ellipse 1" cx="5" cy="5" r="5" transform="translate(927 469)" fill="rgba(244,246,255,0.53)"/>
      </g>
      <g transform="translate(-827 -449)">
        <circle id="Ellipse_1-78" data-name="Ellipse 1" cx="5" cy="5" r="5" transform="translate(927 469)" fill="rgba(244,246,255,0.53)"/>
      </g>
      <g transform="translate(-807 -449)">
        <circle id="Ellipse_1-79" data-name="Ellipse 1" cx="5" cy="5" r="5" transform="translate(927 469)" fill="rgba(244,246,255,0.53)"/>
      </g>
      <g transform="translate(-787 -449)">
        <circle id="Ellipse_1-80" data-name="Ellipse 1" cx="5" cy="5" r="5" transform="translate(927 469)" fill="rgba(244,246,255,0.53)"/>
      </g>
      <g transform="translate(-927 -429)">
        <circle id="Ellipse_1-81" data-name="Ellipse 1" cx="5" cy="5" r="5" transform="translate(927 469)" fill="rgba(244,246,255,0.53)"/>
      </g>
      <g transform="translate(-907 -429)">
        <circle id="Ellipse_1-82" data-name="Ellipse 1" cx="5" cy="5" r="5" transform="translate(927 469)" fill="rgba(244,246,255,0.53)"/>
      </g>
      <g transform="translate(-887 -429)">
        <circle id="Ellipse_1-83" data-name="Ellipse 1" cx="5" cy="5" r="5" transform="translate(927 469)" fill="rgba(244,246,255,0.53)"/>
      </g>
      <g transform="translate(-867 -429)">
        <circle id="Ellipse_1-84" data-name="Ellipse 1" cx="5" cy="5" r="5" transform="translate(927 469)" fill="rgba(244,246,255,0.53)"/>
      </g>
      <g transform="translate(-847 -429)">
        <circle id="Ellipse_1-85" data-name="Ellipse 1" cx="5" cy="5" r="5" transform="translate(927 469)" fill="rgba(244,246,255,0.53)"/>
      </g>
      <g transform="translate(-827 -429)">
        <circle id="Ellipse_1-86" data-name="Ellipse 1" cx="5" cy="5" r="5" transform="translate(927 469)" fill="rgba(244,246,255,0.53)"/>
      </g>
      <g transform="translate(-807 -429)">
        <circle id="Ellipse_1-87" data-name="Ellipse 1" cx="5" cy="5" r="5" transform="translate(927 469)" fill="rgba(244,246,255,0.53)"/>
      </g>
      <g transform="translate(-787 -429)">
        <circle id="Ellipse_1-88" data-name="Ellipse 1" cx="5" cy="5" r="5" transform="translate(927 469)" fill="rgba(244,246,255,0.53)"/>
      </g>
      <g transform="translate(-927 -409)">
        <circle id="Ellipse_1-89" data-name="Ellipse 1" cx="5" cy="5" r="5" transform="translate(927 469)" fill="rgba(244,246,255,0.53)"/>
      </g>
      <g transform="translate(-907 -409)">
        <circle id="Ellipse_1-90" data-name="Ellipse 1" cx="5" cy="5" r="5" transform="translate(927 469)" fill="rgba(244,246,255,0.53)"/>
      </g>
      <g transform="translate(-887 -409)">
        <circle id="Ellipse_1-91" data-name="Ellipse 1" cx="5" cy="5" r="5" transform="translate(927 469)" fill="rgba(244,246,255,0.53)"/>
      </g>
      <g transform="translate(-867 -409)">
        <circle id="Ellipse_1-92" data-name="Ellipse 1" cx="5" cy="5" r="5" transform="translate(927 469)" fill="rgba(244,246,255,0.53)"/>
      </g>
      <g transform="translate(-847 -409)">
        <circle id="Ellipse_1-93" data-name="Ellipse 1" cx="5" cy="5" r="5" transform="translate(927 469)" fill="rgba(244,246,255,0.53)"/>
      </g>
      <g transform="translate(-827 -409)">
        <circle id="Ellipse_1-94" data-name="Ellipse 1" cx="5" cy="5" r="5" transform="translate(927 469)" fill="rgba(244,246,255,0.53)"/>
      </g>
      <g transform="translate(-807 -409)">
        <circle id="Ellipse_1-95" data-name="Ellipse 1" cx="5" cy="5" r="5" transform="translate(927 469)" fill="rgba(244,246,255,0.53)"/>
      </g>
      <g transform="translate(-787 -409)">
        <circle id="Ellipse_1-96" data-name="Ellipse 1" cx="5" cy="5" r="5" transform="translate(927 469)" fill="rgba(244,246,255,0.53)"/>
      </g>
      <g transform="translate(-927 -389)">
        <circle id="Ellipse_1-97" data-name="Ellipse 1" cx="5" cy="5" r="5" transform="translate(927 469)" fill="rgba(244,246,255,0.53)"/>
      </g>
      <g transform="translate(-907 -389)">
        <circle id="Ellipse_1-98" data-name="Ellipse 1" cx="5" cy="5" r="5" transform="translate(927 469)" fill="rgba(244,246,255,0.53)"/>
      </g>
      <g transform="translate(-887 -389)">
        <circle id="Ellipse_1-99" data-name="Ellipse 1" cx="5" cy="5" r="5" transform="translate(927 469)" fill="rgba(244,246,255,0.53)"/>
      </g>
      <g transform="translate(-867 -389)">
        <circle id="Ellipse_1-100" data-name="Ellipse 1" cx="5" cy="5" r="5" transform="translate(927 469)" fill="rgba(244,246,255,0.53)"/>
      </g>
      <g transform="translate(-847 -389)">
        <circle id="Ellipse_1-101" data-name="Ellipse 1" cx="5" cy="5" r="5" transform="translate(927 469)" fill="rgba(244,246,255,0.53)"/>
      </g>
      <g transform="translate(-827 -389)">
        <circle id="Ellipse_1-102" data-name="Ellipse 1" cx="5" cy="5" r="5" transform="translate(927 469)" fill="rgba(244,246,255,0.53)"/>
      </g>
      <g transform="translate(-807 -389)">
        <circle id="Ellipse_1-103" data-name="Ellipse 1" cx="5" cy="5" r="5" transform="translate(927 469)" fill="rgba(244,246,255,0.53)"/>
      </g>
      <g transform="translate(-787 -389)">
        <circle id="Ellipse_1-104" data-name="Ellipse 1" cx="5" cy="5" r="5" transform="translate(927 469)" fill="rgba(244,246,255,0.53)"/>
      </g>
      <g transform="translate(-927 -369)">
        <circle id="Ellipse_1-105" data-name="Ellipse 1" cx="5" cy="5" r="5" transform="translate(927 469)" fill="rgba(244,246,255,0.53)"/>
      </g>
      <g transform="translate(-907 -369)">
        <circle id="Ellipse_1-106" data-name="Ellipse 1" cx="5" cy="5" r="5" transform="translate(927 469)" fill="rgba(244,246,255,0.53)"/>
      </g>
      <g transform="translate(-887 -369)">
        <circle id="Ellipse_1-107" data-name="Ellipse 1" cx="5" cy="5" r="5" transform="translate(927 469)" fill="rgba(244,246,255,0.53)"/>
      </g>
      <g transform="translate(-867 -369)">
        <circle id="Ellipse_1-108" data-name="Ellipse 1" cx="5" cy="5" r="5" transform="translate(927 469)" fill="rgba(244,246,255,0.53)"/>
      </g>
      <g transform="translate(-847 -369)">
        <circle id="Ellipse_1-109" data-name="Ellipse 1" cx="5" cy="5" r="5" transform="translate(927 469)" fill="rgba(244,246,255,0.53)"/>
      </g>
      <g transform="translate(-827 -369)">
        <circle id="Ellipse_1-110" data-name="Ellipse 1" cx="5" cy="5" r="5" transform="translate(927 469)" fill="rgba(244,246,255,0.53)"/>
      </g>
      <g transform="translate(-807 -369)">
        <circle id="Ellipse_1-111" data-name="Ellipse 1" cx="5" cy="5" r="5" transform="translate(927 469)" fill="rgba(244,246,255,0.53)"/>
      </g>
      <g transform="translate(-787 -369)">
        <circle id="Ellipse_1-112" data-name="Ellipse 1" cx="5" cy="5" r="5" transform="translate(927 469)" fill="rgba(244,246,255,0.53)"/>
      </g>
      <g transform="translate(-927 -349)">
        <circle id="Ellipse_1-113" data-name="Ellipse 1" cx="5" cy="5" r="5" transform="translate(927 469)" fill="rgba(244,246,255,0.53)"/>
      </g>
      <g transform="translate(-907 -349)">
        <circle id="Ellipse_1-114" data-name="Ellipse 1" cx="5" cy="5" r="5" transform="translate(927 469)" fill="rgba(244,246,255,0.53)"/>
      </g>
      <g transform="translate(-887 -349)">
        <circle id="Ellipse_1-115" data-name="Ellipse 1" cx="5" cy="5" r="5" transform="translate(927 469)" fill="rgba(244,246,255,0.53)"/>
      </g>
      <g transform="translate(-867 -349)">
        <circle id="Ellipse_1-116" data-name="Ellipse 1" cx="5" cy="5" r="5" transform="translate(927 469)" fill="rgba(244,246,255,0.53)"/>
      </g>
      <g transform="translate(-847 -349)">
        <circle id="Ellipse_1-117" data-name="Ellipse 1" cx="5" cy="5" r="5" transform="translate(927 469)" fill="rgba(244,246,255,0.53)"/>
      </g>
      <g transform="translate(-827 -349)">
        <circle id="Ellipse_1-118" data-name="Ellipse 1" cx="5" cy="5" r="5" transform="translate(927 469)" fill="rgba(244,246,255,0.53)"/>
      </g>
      <g transform="translate(-807 -349)">
        <circle id="Ellipse_1-119" data-name="Ellipse 1" cx="5" cy="5" r="5" transform="translate(927 469)" fill="rgba(244,246,255,0.53)"/>
      </g>
      <g transform="translate(-787 -349)">
        <circle id="Ellipse_1-120" data-name="Ellipse 1" cx="5" cy="5" r="5" transform="translate(927 469)" fill="rgba(244,246,255,0.53)"/>
      </g>
      <g transform="translate(-927 -329)">
        <circle id="Ellipse_1-121" data-name="Ellipse 1" cx="5" cy="5" r="5" transform="translate(927 469)" fill="rgba(244,246,255,0.53)"/>
      </g>
      <g transform="translate(-907 -329)">
        <circle id="Ellipse_1-122" data-name="Ellipse 1" cx="5" cy="5" r="5" transform="translate(927 469)" fill="rgba(244,246,255,0.53)"/>
      </g>
      <g transform="translate(-887 -329)">
        <circle id="Ellipse_1-123" data-name="Ellipse 1" cx="5" cy="5" r="5" transform="translate(927 469)" fill="rgba(244,246,255,0.53)"/>
      </g>
      <g transform="translate(-867 -329)">
        <circle id="Ellipse_1-124" data-name="Ellipse 1" cx="5" cy="5" r="5" transform="translate(927 469)" fill="rgba(244,246,255,0.53)"/>
      </g>
      <g transform="translate(-847 -329)">
        <circle id="Ellipse_1-125" data-name="Ellipse 1" cx="5" cy="5" r="5" transform="translate(927 469)" fill="rgba(244,246,255,0.53)"/>
      </g>
      <g transform="translate(-827 -329)">
        <circle id="Ellipse_1-126" data-name="Ellipse 1" cx="5" cy="5" r="5" transform="translate(927 469)" fill="rgba(244,246,255,0.53)"/>
      </g>
      <g transform="translate(-807 -329)">
        <circle id="Ellipse_1-127" data-name="Ellipse 1" cx="5" cy="5" r="5" transform="translate(927 469)" fill="rgba(244,246,255,0.53)"/>
      </g>
      <g transform="translate(-787 -329)">
        <circle id="Ellipse_1-128" data-name="Ellipse 1" cx="5" cy="5" r="5" transform="translate(927 469)" fill="rgba(244,246,255,0.53)"/>
      </g>
    </g>
  </g>
</svg>
