<svg xmlns="http://www.w3.org/2000/svg" width="37.008" height="28.145" viewBox="0 0 37.008 28.145">
  <g id="premium-quality" transform="translate(-151 -1)">
    <path id="Path_17" data-name="Path 17" d="M1.352,20.081h-.2C.5,20.068-.017,19.723,0,19.31s.565-.75,1.216-.729a63.474,63.474,0,0,0,13.843-1.612c9.525-2.252,15.612-6.424,18.087-12.4a1.351,1.351,0,0,1,1.446-.535c.632.105,1.01.515.845.916C29.327,19.7,3.883,20.081,1.352,20.081Z" transform="translate(151 1)" fill="#fff"/>
    <path id="Path_18" data-name="Path 18" d="M23.25,8.1a.76.76,0,0,1-.194-.025l-4.1-1.1a.75.75,0,0,1-.18-1.374l2.6-1.5a.749.749,0,0,1,1.024.274l1.5,2.6A.749.749,0,0,1,23.25,8.1Z" transform="translate(164.007 -1)" fill="#fff"/>
    <path id="Path_19" data-name="Path 19" d="M21.89,28.659a1,1,0,0,1-1-1L20.75,11a1,1,0,0,1,2,0l.14,16.659A1,1,0,0,1,21.89,28.659Z" transform="translate(163.267 0.486)" fill="#fff"/>
    <path id="Path_20" data-name="Path 20" d="M15.75,28.659a1,1,0,0,1-1-1V18a1,1,0,0,1,2,0v9.659A1,1,0,0,1,15.75,28.659Z" transform="translate(159.72 0.486)" fill="#fff"/>
    <path id="Path_21" data-name="Path 21" d="M9.75,28.622a1,1,0,0,1-1-1V21a1,1,0,0,1,2,0v6.622A1,1,0,0,1,9.75,28.622Z" transform="translate(156.173 0.486)" fill="#fff"/>
    <path id="Path_22" data-name="Path 22" d="M3.75,28.622a1,1,0,0,1-1-1V22.5a1,1,0,0,1,2,0v5.122A1,1,0,0,1,3.75,28.622Z" transform="translate(152.626 0.486)" fill="#fff"/>
    <path id="Path_23" data-name="Path 23" d="M14.854.147A.518.518,0,0,0,14.491,0,12.041,12.041,0,0,0,6.272,4.1,7.867,7.867,0,0,0,.937,6.043a.5.5,0,0,0,.237.84l2.129.51-.013.014a.5.5,0,0,0,.018.688l3.6,3.6a.5.5,0,0,0,.688.018l.014-.013.51,2.129a.5.5,0,0,0,.351.365.485.485,0,0,0,.136.019.5.5,0,0,0,.354-.146A7.866,7.866,0,0,0,10.9,8.728,12.049,12.049,0,0,0,15,.509a.506.506,0,0,0-.147-.362Z" transform="translate(152.05 1)" fill="#fff"/>
    <path id="Path_24" data-name="Path 24" d="M1.716,10.347c-.671.671-1.53,3.458-1.7,4.01A.5.5,0,0,0,.5,15a.512.512,0,0,0,.144-.021c.552-.165,3.338-1.023,4.01-1.695a2.077,2.077,0,1,0-2.938-2.937Z" transform="translate(151 0.733)" fill="#fff"/>
  </g>
</svg>
