<svg xmlns="http://www.w3.org/2000/svg" width="47.876" height="47.876" viewBox="0 0 47.876 47.876">
  <g id="premium-quality" transform="translate(-144.489 2.5)">
    <path id="Path_25" data-name="Path 25" d="M81.677,180.734a.935.935,0,1,0,.935.935A.935.935,0,0,0,81.677,180.734Zm0,0" transform="translate(71.297 -166.334)" fill="#fff"/>
    <path id="Path_26" data-name="Path 26" d="M34.686,28.074a.934.934,0,0,0-.661-.274.945.945,0,0,0-.661.274l-.661.661-2.149-2.148a16.83,16.83,0,1,0-3.967,3.967L28.735,32.7l-.661.661a.936.936,0,0,0,0,1.323L39.9,46.506a4.674,4.674,0,1,0,6.611-6.61ZM30.058,31.38l-2-2c.233-.209.46-.423.68-.643s.434-.447.643-.68l2,2Zm-23.8-3.967a14.96,14.96,0,1,1,21.156,0,14.951,14.951,0,0,1-21.156,0Zm27.768,2.645L36.669,32.7,32.7,36.669l-2.645-2.644Zm11.16,15.127a2.8,2.8,0,0,1-3.966,0l-7.194-7.194,3.966-3.966,7.194,7.194A2.8,2.8,0,0,1,45.184,45.184Zm0,0" transform="translate(144.487 -2.501)" fill="#fff"/>
    <path id="Path_27" data-name="Path 27" d="M62.444,43.854a13.09,13.09,0,1,0,0,18.512,13.086,13.086,0,0,0,0-18.512ZM61.121,61.043a11.22,11.22,0,1,1,0-15.867,11.213,11.213,0,0,1,0,15.867Zm0,0" transform="translate(108.135 -38.775)" fill="#fff"/>
    <path id="Path_28" data-name="Path 28" d="M93.76,80.043a9.347,9.347,0,0,0-8.849,6.33.935.935,0,0,0,1.771.6,7.475,7.475,0,0,1,7.078-5.06.935.935,0,0,0,0-1.87Zm0,0" transform="translate(67.563 -75.058)" fill="#fff"/>
  </g>
</svg>
