<svg xmlns="http://www.w3.org/2000/svg" width="34.926" height="47.976" viewBox="0 0 34.926 47.976">
  <g id="quality" transform="translate(-145 1)">
    <g id="filled" transform="translate(145 -1)">
      <path id="Path_1" data-name="Path 1" d="M143.509,75.163h.293a11.826,11.826,0,1,0-.427-.009l.022,0C143.434,75.161,143.472,75.163,143.509,75.163Zm-9.226-11.8a9.519,9.519,0,1,1,9.519,9.519A9.519,9.519,0,0,1,134.284,63.36Z" transform="translate(-127.43 -46.987)" fill="#fff"/>
      <path id="Path_2" data-name="Path 2" d="M118.6,40.518l-7.653-7.653a16.365,16.365,0,1,0-16.282,2.852V50.833a1.15,1.15,0,0,0,1.776.95l3.935-2.624,3.935,2.624a1.15,1.15,0,0,0,1.776-.95V44.159l4.436,4.435a1.15,1.15,0,0,0,1.928-.584l.927-4.638,4.638-.927A1.15,1.15,0,0,0,118.6,40.518ZM86.285,20.372A14.088,14.088,0,1,1,100.372,34.46,14.1,14.1,0,0,1,86.285,20.372Zm14.721,26.464a1.142,1.142,0,0,0-1.267,0L96.946,48.7V36.383a16.4,16.4,0,0,0,6.854,0V48.7Zm11.173-5.555a1.142,1.142,0,0,0-.9.9l-.658,3.292-4.541-4.541V35.717a16.322,16.322,0,0,0,3-1.485l6.392,6.392Z" transform="translate(-84 -4)" fill="#fff"/>
      <path id="Path_3" data-name="Path 3" d="M193.806,113.13a1.15,1.15,0,0,0,1.653-1.2l-.556-3.345,2.416-2.38a1.15,1.15,0,0,0-.631-1.943l-3.354-.505-1.517-3.033a1.15,1.15,0,0,0-2.043,0l-1.517,3.033-3.353.505a1.15,1.15,0,0,0-.631,1.943l2.416,2.38-.556,3.345a1.15,1.15,0,0,0,1.653,1.2l3.01-1.562Zm-5.045-3.08.279-1.677a1.142,1.142,0,0,0-.325-1l-1.211-1.193,1.681-.253a1.142,1.142,0,0,0,.852-.619l.76-1.52.76,1.52a1.142,1.142,0,0,0,.852.619l1.681.253-1.211,1.193a1.142,1.142,0,0,0-.325,1l.279,1.677-1.509-.783a1.142,1.142,0,0,0-1.053,0Z" transform="translate(-174.424 -90.952)" fill="#fff"/>
    </g>
    <g id="filled-2" data-name="filled" transform="translate(145 -1)">
      <path id="Path_1-2" data-name="Path 1" d="M143.509,75.163h.293a11.826,11.826,0,1,0-.427-.009l.022,0C143.434,75.161,143.472,75.163,143.509,75.163Zm-9.226-11.8a9.519,9.519,0,1,1,9.519,9.519A9.519,9.519,0,0,1,134.284,63.36Z" transform="translate(-127.43 -46.987)" fill="#fff"/>
      <path id="Path_2-2" data-name="Path 2" d="M118.6,40.518l-7.653-7.653a16.365,16.365,0,1,0-16.282,2.852V50.833a1.15,1.15,0,0,0,1.776.95l3.935-2.624,3.935,2.624a1.15,1.15,0,0,0,1.776-.95V44.159l4.436,4.435a1.15,1.15,0,0,0,1.928-.584l.927-4.638,4.638-.927A1.15,1.15,0,0,0,118.6,40.518ZM86.285,20.372A14.088,14.088,0,1,1,100.372,34.46,14.1,14.1,0,0,1,86.285,20.372Zm14.721,26.464a1.142,1.142,0,0,0-1.267,0L96.946,48.7V36.383a16.4,16.4,0,0,0,6.854,0V48.7Zm11.173-5.555a1.142,1.142,0,0,0-.9.9l-.658,3.292-4.541-4.541V35.717a16.322,16.322,0,0,0,3-1.485l6.392,6.392Z" transform="translate(-84 -4)" fill="#fff"/>
      <path id="Path_3-2" data-name="Path 3" d="M193.806,113.13a1.15,1.15,0,0,0,1.653-1.2l-.556-3.345,2.416-2.38a1.15,1.15,0,0,0-.631-1.943l-3.354-.505-1.517-3.033a1.15,1.15,0,0,0-2.043,0l-1.517,3.033-3.353.505a1.15,1.15,0,0,0-.631,1.943l2.416,2.38-.556,3.345a1.15,1.15,0,0,0,1.653,1.2l3.01-1.562Zm-5.045-3.08.279-1.677a1.142,1.142,0,0,0-.325-1l-1.211-1.193,1.681-.253a1.142,1.142,0,0,0,.852-.619l.76-1.52.76,1.52a1.142,1.142,0,0,0,.852.619l1.681.253-1.211,1.193a1.142,1.142,0,0,0-.325,1l.279,1.677-1.509-.783a1.142,1.142,0,0,0-1.053,0Z" transform="translate(-174.424 -90.952)" fill="#fff"/>
    </g>
  </g>
</svg>
