<svg xmlns="http://www.w3.org/2000/svg" width="54.465" height="50.631" viewBox="0 0 54.465 50.631">
  <g id="respact" transform="translate(-139 1.637)">
    <g id="Group_2" data-name="Group 2" transform="translate(139 -1.637)">
      <path id="Path_12" data-name="Path 12" d="M53.525,24.178,40.77,11.4a3.23,3.23,0,0,0-4.18-.334l-.354.2L19.824,13.528a4.611,4.611,0,0,0-1.088.172l-.576-.541-.072-.065a3.23,3.23,0,0,0-4.393.168L.941,26.035a3.24,3.24,0,0,0-.276,4.249c.034.044.069.087.106.128l5.472,6.109A17.677,17.677,0,0,0,6.968,38.8a4.079,4.079,0,0,0,.254,5.48l.008.008.018.018a4.045,4.045,0,0,0,2.8,1.184,4.159,4.159,0,0,0-.033.5,4.047,4.047,0,0,0,1.189,2.876l.016.017.008.008a4.048,4.048,0,0,0,2.881,1.194c.126,0,.251-.007.375-.018l.037.041c0,.055-.008.11-.008.165A4.047,4.047,0,0,0,15.7,53.146l.017.017.007.007a4.047,4.047,0,0,0,2.881,1.193h.008l.388.388a4.042,4.042,0,0,0,1.185,2.7l.014.014.014.014a4.041,4.041,0,0,0,2.689,1.176l1.074,1.074a4.66,4.66,0,0,0,6.944-.407,4.566,4.566,0,0,0,.917-2.037l.674.674a4.809,4.809,0,0,0,3.375,1.4,4.61,4.61,0,0,0,2.852-.986,4.661,4.661,0,0,0,1.692-2.821A4.81,4.81,0,0,0,43.54,56.7a4.612,4.612,0,0,0,2.852-.986,4.66,4.66,0,0,0,.6-6.735,4.6,4.6,0,0,0,2.051-.916,4.66,4.66,0,0,0,.407-6.944l-1.73-1.73a2.177,2.177,0,0,0,.179-.2c3.239-4.127,4.983-7.2,5.626-9.914A2.2,2.2,0,0,0,53.662,29l.357-.9A3.242,3.242,0,0,0,53.525,24.178Zm-43.4,19.116A1.869,1.869,0,0,1,8.8,42.746l-.02-.02a1.874,1.874,0,0,1,0-2.649l1.466-1.466a1.874,1.874,0,0,1,2.65,0l.019.02a1.873,1.873,0,0,1,0,2.65l-1.465,1.466A1.869,1.869,0,0,1,10.123,43.294Zm5.312,4.037a1.874,1.874,0,0,1-2.65,0l-.019-.02a1.873,1.873,0,0,1,0-2.65l3.468-3.468a1.874,1.874,0,0,1,2.65,0l.02.019a1.874,1.874,0,0,1,0,2.65Zm4.5,4.282a1.874,1.874,0,0,1-2.65,0l-.02-.02a1.874,1.874,0,0,1,0-2.65L19.507,46.7a1.874,1.874,0,0,1,2.65,0l.02.02a1.874,1.874,0,0,1,0,2.65Zm3.157,4.847a1.868,1.868,0,0,1-1.325-.549l-.02-.019a1.874,1.874,0,0,1,0-2.65l1.021-1.021a1.874,1.874,0,0,1,2.65,0l.02.02a1.874,1.874,0,0,1,0,2.65l-1.021,1.021A1.869,1.869,0,0,1,23.089,56.461ZM29.2,57.953a2.46,2.46,0,0,1-3.663.217l-.19-.19a4.111,4.111,0,0,0,.625-.513l1.021-1.02a4.054,4.054,0,0,0,1.177-2.584l.785.785A2.5,2.5,0,0,1,29.2,57.953ZM47.9,42.677a2.46,2.46,0,0,1-.217,3.663,2.381,2.381,0,0,1-1.486.511,2.581,2.581,0,0,1-1.819-.757l-8.9-8.9a1.182,1.182,0,0,0-1.673,0h0a1.2,1.2,0,0,0,0,1.693L45.243,50.328a2.46,2.46,0,0,1-.217,3.663,2.382,2.382,0,0,1-1.486.511,2.582,2.582,0,0,1-1.819-.757L30.338,42.362a1.2,1.2,0,0,0-1.7,0,1.181,1.181,0,0,0,0,1.67l8.95,8.95a2.46,2.46,0,0,1-.217,3.663,2.381,2.381,0,0,1-1.486.511A2.582,2.582,0,0,1,34.07,56.4l-9.248-9.249a4.047,4.047,0,0,0-1.089-1.987l-.02-.02a4.041,4.041,0,0,0-2.331-1.152,4.065,4.065,0,0,0-.923-4.334l-.007-.007-.017-.017a4.067,4.067,0,0,0-4.894-.652,4.042,4.042,0,0,0-1.064-1.9l-.013-.013-.014-.014a4.074,4.074,0,0,0-5.762,0l-.006.006c-.142-.442-.263-.88-.357-1.313a1.049,1.049,0,0,0-.191-.416L2.41,28.944A1.03,1.03,0,0,1,2.5,27.589L15.252,14.815a1.03,1.03,0,0,1,1.4-.053l.1.095a4.626,4.626,0,0,0,3.228,7.927l8.125.1Zm4.157-15.591-.438,1.1a1.048,1.048,0,0,0-.191.416c-.62,2.844-2.8,6.107-5.253,9.227C43.057,34.719,29.042,20.7,29.042,20.7L20,20.582a2.429,2.429,0,1,1,0-4.858l16.957-2.332,0,0,.852-.486a1.03,1.03,0,0,1,1.4.053L51.967,25.732A1.03,1.03,0,0,1,52.055,27.087Z" transform="translate(0 -10.455)" fill="#fff"/>
    </g>
  </g>
</svg>
